<?xml version="1.0" encoding="UTF-8"?>
<svg version="1.1" xmlns="http://www.w3.org/2000/svg" width="400" height="400">
<path d="M0 0 C132 0 264 0 400 0 C400 132 400 264 400 400 C268 400 136 400 0 400 C0 268 0 136 0 0 Z " fill="#076DDB" transform="translate(0,0)"/>
<path d="M0 0 C132 0 264 0 400 0 C400 132 400 264 400 400 C268 400 136 400 0 400 C0 268 0 136 0 0 Z M54 44 C53.13375 44.53625 52.2675 45.0725 51.375 45.625 C42.86990969 54.13009031 39.69804555 65.44957311 39.59876978 77.2306295 C39.60546195 78.2111955 39.61215411 79.1917615 39.61904907 80.20204163 C39.6143691 81.27427536 39.60968913 82.34650909 39.60486734 83.45123476 C39.59298004 87.01457514 39.60235016 90.57752646 39.61181641 94.14086914 C39.60774796 96.70751671 39.60240455 99.27416253 39.59588623 101.84080505 C39.58259448 108.07044708 39.58540605 114.29998026 39.59412415 120.52962644 C39.60091772 125.59507674 39.60181021 130.66049668 39.5985527 135.72595024 C39.598093 136.44871727 39.59763331 137.17148429 39.59715968 137.91615335 C39.59620044 139.38473317 39.5952278 140.85331299 39.5942419 142.32189279 C39.58570152 156.07013926 39.59550118 169.81832557 39.611643 183.56656217 C39.62504781 195.34819719 39.62271414 207.12974353 39.60888672 218.91137695 C39.59281187 232.61421763 39.58652238 246.31700569 39.59572351 260.01985449 C39.5966791 261.48252482 39.59762221 262.94519517 39.5985527 264.40786552 C39.59901553 265.12741043 39.59947836 265.84695533 39.59995521 266.58830463 C39.60253918 271.64474451 39.59818699 276.70115084 39.59111404 281.75758553 C39.58179443 288.56944787 39.58848258 295.38111743 39.60579681 302.19297218 C39.60975677 304.68985466 39.60863606 307.18675126 39.60200882 309.68362808 C39.5937842 313.09758807 39.60412662 316.51101573 39.61904907 319.92494202 C39.61235691 320.90773874 39.60566474 321.89053546 39.59876978 322.9031139 C39.70376777 335.32822662 44.13683285 347.13683285 53 356 C59.19681794 360.30861854 65.07292756 360.5685319 72.43092346 360.50120544 C73.5639639 360.50673984 74.69700435 360.51227424 75.86437935 360.51797634 C79.65142888 360.53156207 83.43781703 360.51662404 87.22485352 360.50170898 C89.94371651 360.50328552 92.66255567 360.51084119 95.38140869 360.51808167 C101.99349736 360.53199372 108.60539467 360.5244733 115.21747417 360.50940608 C122.92090976 360.4925219 130.624298 360.49575924 138.32774638 360.49950016 C152.07392357 360.50537492 165.82000908 360.49122178 179.56616211 360.46655273 C192.89887935 360.44262841 206.23147413 360.43555078 219.56420898 360.44604492 C234.09102996 360.45745847 248.61779434 360.45937915 263.14461464 360.44494683 C264.69406028 360.44342102 266.24350593 360.44190066 267.79295158 360.44038582 C268.93642207 360.4392491 268.93642207 360.4392491 270.10299297 360.43808941 C275.47038424 360.43335033 280.83775019 360.43519532 286.20514107 360.43945122 C292.74701747 360.44438173 299.28877817 360.43837629 305.8306281 360.41855692 C309.16726211 360.40869661 312.50357325 360.40517855 315.84023857 360.41144943 C319.45903452 360.41739803 323.07731104 360.40490431 326.69606018 360.38768005 C327.74800601 360.3936901 328.79995184 360.39970014 329.88377482 360.40589231 C337.9141638 360.33630025 344.12235053 358.87764947 350 353 C357.35394172 342.90748102 360.62076179 332.04727773 360.50793457 319.65319824 C360.51417453 318.57743766 360.5204145 317.50167708 360.52684355 316.3933177 C360.54267351 312.82383125 360.53020815 309.2550372 360.51757812 305.68554688 C360.52300366 303.11214299 360.53012873 300.53874222 360.53881836 297.96534729 C360.55653063 291.72244396 360.55279638 285.47973386 360.5411678 279.2368232 C360.53210484 274.15948863 360.53092179 269.08220791 360.53526306 264.00486755 C360.53618246 262.91762338 360.53618246 262.91762338 360.53712043 261.80841467 C360.53839944 260.33557084 360.53969629 258.86272702 360.5410108 257.38988322 C360.55239523 243.60483291 360.53933655 229.8198893 360.51780933 216.0348565 C360.49994027 204.22712307 360.50304498 192.41954699 360.52148438 180.61181641 C360.54292898 166.873413 360.55129679 153.13510293 360.53903532 139.39668512 C360.53776123 137.92950091 360.53650375 136.46231669 360.53526306 134.99513245 C360.53464596 134.27339984 360.53402886 133.55166724 360.53339306 132.80806395 C360.5299509 127.74152144 360.53574391 122.67503853 360.54518127 117.60850525 C360.55762322 110.77934398 360.54866429 103.95048352 360.52560425 97.12135124 C360.52033162 94.6204725 360.52180602 92.11956868 360.53065491 89.61870003 C360.54165077 86.19440165 360.52779691 82.77104104 360.50793457 79.34680176 C360.51685746 78.36662189 360.52578034 77.38644202 360.53497362 76.37655973 C360.41476332 65.62866664 357.10465267 55.20765811 350 47 C344.65682655 42.11068684 340.50035251 39.88141953 333.21976089 39.86577892 C332.25531311 39.86132108 331.29086533 39.85686324 330.29719186 39.85227031 C328.71200175 39.85254685 328.71200175 39.85254685 327.0947876 39.85282898 C325.96995397 39.84915229 324.84512035 39.8454756 323.68620086 39.8416875 C319.90310068 39.83064181 316.12002796 39.82680532 312.33691406 39.82299805 C309.63012456 39.81726618 306.92333917 39.81010026 304.21655273 39.80308533 C296.08463439 39.78333538 287.95271482 39.77325724 279.82077849 39.76435754 C275.99043994 39.75997282 272.16010278 39.75460654 268.32976532 39.74936867 C255.59590568 39.73235897 242.8620469 39.71786448 230.12817764 39.71061993 C226.82470956 39.70871007 223.52124149 39.70678973 220.21777344 39.70483398 C219.39672425 39.70435024 218.57567506 39.7038665 217.7297456 39.7033681 C204.42724993 39.69506655 191.12484414 39.66972637 177.82238773 39.63725331 C164.16263075 39.60418001 150.50291947 39.58617098 136.84312224 39.58297569 C129.17457614 39.58081099 121.50616118 39.57206823 113.83765411 39.54651451 C107.30742436 39.52480391 100.77735761 39.51675886 94.24709585 39.52648129 C90.91633556 39.53102493 87.58618416 39.52695342 84.2554245 39.50971985 C80.64104758 39.49206478 77.02752406 39.4990768 73.41314697 39.51225281 C71.84134119 39.49579894 71.84134119 39.49579894 70.23778176 39.47901267 C63.85735073 39.53517329 59.40327144 40.57800199 54 44 Z " fill="#FEFEFE" transform="translate(0,0)"/>
<path d="M0 0 C1.86570648 -0.0099852 1.86570648 -0.0099852 3.769104 -0.02017212 C6.39130178 -0.03025987 9.01352503 -0.03499035 11.63574219 -0.03466797 C15.61423947 -0.03442535 19.59199676 -0.07537846 23.5703125 -0.11328125 C26.13020458 -0.11915192 28.69010188 -0.12311964 31.25 -0.125 C33.0100235 -0.14655655 33.0100235 -0.14655655 34.80560303 -0.16854858 C48.05232149 -0.09649017 59.49070113 3.41781168 69.23046875 12.5234375 C78.02802303 21.65767023 82.94062152 31.45037131 83.06762695 44.18261719 C83.08687981 45.87532745 83.08687981 45.87532745 83.10652161 47.60223389 C83.11390854 48.80857483 83.12129547 50.01491577 83.12890625 51.2578125 C83.136978 52.51297668 83.14504974 53.76814087 83.15336609 55.06134033 C83.16717508 57.71410786 83.17820065 60.36675253 83.18579102 63.01953125 C83.19683493 66.39289109 83.23123445 69.76558766 83.27096272 73.13871384 C83.30362467 76.38667959 83.30792315 79.63470761 83.31640625 82.8828125 C83.33391434 84.08105652 83.35142242 85.27930054 83.36946106 86.51385498 C83.33623915 99.47165899 78.82922648 108.57888032 69.76953125 117.72265625 C67.890625 119.3359375 67.890625 119.3359375 65.21875 120.4375 C62.74139573 122.06813457 62.74139573 122.06813457 62.39819336 124.35180664 C62.17181358 126.91873184 62.09508962 129.44670092 62.078125 132.0234375 C62.05298828 132.91611328 62.02785156 133.80878906 62.00195312 134.72851562 C61.94305162 136.93143189 61.90679746 139.13236069 61.890625 141.3359375 C58.77106009 140.70529416 56.47372001 139.64397648 53.7734375 137.97265625 C53.00128906 137.49763672 52.22914063 137.02261719 51.43359375 136.53320312 C50.63566406 136.03498047 49.83773437 135.53675781 49.015625 135.0234375 C48.22542969 134.53681641 47.43523437 134.05019531 46.62109375 133.54882812 C43.34438938 131.52337775 40.14066726 129.52472156 37.06347656 127.20141602 C33.34081532 125.01267683 31.03332845 124.79991534 26.7421875 124.7265625 C26.08479584 124.71002625 25.42740417 124.69348999 24.75009155 124.67645264 C22.67183824 124.62827147 20.59431474 124.60667136 18.515625 124.5859375 C17.09762012 124.55775234 15.67964879 124.52782137 14.26171875 124.49609375 C10.80484459 124.42252458 7.34810827 124.37276652 3.890625 124.3359375 C4.19844996 122.68922338 4.51201734 121.04358174 4.828125 119.3984375 C5.00214844 118.48191406 5.17617187 117.56539063 5.35546875 116.62109375 C5.890625 114.3359375 5.890625 114.3359375 6.890625 113.3359375 C8.23734216 113.28556852 9.58663876 113.30020216 10.93359375 113.34375 C12.17399414 113.36888672 12.17399414 113.36888672 13.43945312 113.39453125 C15.1792651 113.4383163 16.91889448 113.49021486 18.65820312 113.55078125 C24.80658753 113.65539413 28.63856427 112.65587891 33.73046875 109.0234375 C35.44895507 106.52382103 35.33918371 104.3351662 35.453125 101.3359375 C35.6831886 95.6470921 35.6831886 95.6470921 37.890625 92.3359375 C37.53547471 89.49473516 36.79713249 87.05545998 35.890625 84.3359375 C36.880625 83.3459375 37.870625 82.3559375 38.890625 81.3359375 C38.395625 80.19125 38.395625 80.19125 37.890625 79.0234375 C36.890625 76.3359375 36.890625 76.3359375 36.890625 73.3359375 C38.004375 72.8821875 39.118125 72.4284375 40.265625 71.9609375 C43.85261508 70.61127764 43.85261508 70.61127764 45.890625 68.3359375 C46.57541973 65.34774233 46.76675357 64.19515949 45.890625 61.3359375 C43.16838449 57.73848814 40.03104421 54.56856246 36.890625 51.3359375 C32.68064428 46.47826744 32.15437924 41.97420703 31.48046875 35.75 C30.77179756 31.64815482 29.44182489 28.19502015 27.890625 24.3359375 C27.94276526 27.87877847 28.0379021 31.41923065 28.140625 34.9609375 C28.15480469 35.95996094 28.16898437 36.95898438 28.18359375 37.98828125 C28.38169486 43.97093483 28.90315954 47.60564017 32.890625 52.3359375 C33.60863281 53.26535156 34.32664062 54.19476563 35.06640625 55.15234375 C36.49706782 56.9910185 37.93464645 58.8243309 39.37890625 60.65234375 C40.890625 63.3359375 40.890625 63.3359375 40.84375 66.0625 C39.890625 68.3359375 39.890625 68.3359375 36.328125 70.1484375 C35.19375 70.5403125 34.059375 70.9321875 32.890625 71.3359375 C33.385625 75.7909375 33.385625 75.7909375 33.890625 80.3359375 C30.425625 81.3259375 30.425625 81.3259375 26.890625 82.3359375 C28.18341033 86.32202562 29.49221481 87.95705037 32.890625 90.3359375 C32.890625 90.9959375 32.890625 91.6559375 32.890625 92.3359375 C31.900625 92.8309375 31.900625 92.8309375 30.890625 93.3359375 C30.93703125 94.08359375 30.9834375 94.83125 31.03125 95.6015625 C31.32181375 103.52980201 31.32181375 103.52980201 29.453125 107.0234375 C25.19378987 109.20504817 20.52275078 108.99919142 15.921875 107.83984375 C11.94323182 106.85283419 7.94035859 106.73522702 3.890625 107.3359375 C-1.29218474 111.87089602 -2.33277395 117.73482858 -3.109375 124.3359375 C-14.44255481 125.12509509 -23.33617479 122.60146143 -32.109375 115.25390625 C-39.85174741 107.82909208 -44.75463045 99.06377236 -45.24981689 88.27651978 C-45.2566449 87.19478485 -45.2634729 86.11304993 -45.27050781 84.99853516 C-45.28011536 83.7635025 -45.2897229 82.52846985 -45.29962158 81.25601196 C-45.30447003 79.92067654 -45.30874874 78.58533895 -45.3125 77.25 C-45.31532738 76.57043621 -45.31815475 75.89087242 -45.32106781 75.19071579 C-45.33600558 71.59588998 -45.34526976 68.00110375 -45.34960938 64.40625 C-45.35509269 60.71222373 -45.37913293 57.01856626 -45.40758133 53.32465553 C-45.42629002 50.46602343 -45.43141761 47.60747887 -45.43294525 44.74879074 C-45.4374052 42.73040231 -45.45600649 40.7120609 -45.47491455 38.6937561 C-45.44614205 26.79265861 -42.63992949 18.85345695 -34.15234375 10.3828125 C-23.8568183 1.01250635 -13.48015292 0.02539436 0 0 Z " fill="#FCFDFE" transform="translate(178.109375,89.6640625)"/>
<path d="M0 0 C2.97 0 5.94 0 9 0 C9.33 0.99 9.66 1.98 10 3 C10.55042969 2.51660156 11.10085938 2.03320312 11.66796875 1.53515625 C15.80752454 -1.18987796 20.2368077 -0.82750375 25 0 C29.00972571 2.06884784 31.32817413 4.74397772 33.4375 8.6875 C34.69903157 16.11651927 34.86552332 22.54104112 31.36328125 29.34375 C28.74032267 32.53038162 26.06649209 33.87118992 21.9921875 34.36328125 C20.96351563 34.34652344 19.93484375 34.32976562 18.875 34.3125 C17.84117187 34.30863281 16.80734375 34.30476563 15.7421875 34.30078125 C13 34 13 34 10 32 C9.67 37.28 9.34 42.56 9 48 C6.03 48 3.06 48 0 48 C0 32.16 0 16.32 0 0 Z " fill="#F5F8FD" transform="translate(299,260)"/>
<path d="M0 0 C4.53100555 0.78774345 7.31012045 2.82302787 9.98828125 6.51953125 C12.86522696 12.25398385 12.62780701 18.25059973 11.98828125 24.51953125 C9.84893758 29.03592344 7.1090795 31.73944342 2.98828125 34.51953125 C-0.2734375 34.98046875 -0.2734375 34.98046875 -3.69921875 34.89453125 C-4.83746094 34.88164062 -5.97570312 34.86875 -7.1484375 34.85546875 C-10.01171875 34.51953125 -10.01171875 34.51953125 -12.01171875 32.51953125 C-12.34171875 37.79953125 -12.67171875 43.07953125 -13.01171875 48.51953125 C-15.98171875 48.51953125 -18.95171875 48.51953125 -22.01171875 48.51953125 C-22.01171875 33.00953125 -22.01171875 17.49953125 -22.01171875 1.51953125 C-19.37171875 1.51953125 -16.73171875 1.51953125 -14.01171875 1.51953125 C-13.68171875 2.50953125 -13.35171875 3.49953125 -13.01171875 4.51953125 C-12.47160156 3.87242187 -11.93148437 3.2253125 -11.375 2.55859375 C-7.7359416 -0.58122192 -4.64132274 -0.15301064 0 0 Z " fill="#F7F9FD" transform="translate(134.01171875,259.48046875)"/>
<path d="M0 0 C2.68485588 2.02292137 4.18122233 4.31225049 5.6953125 7.27734375 C5.6953125 8.26734375 5.6953125 9.25734375 5.6953125 10.27734375 C2.66131022 10.51072854 -0.27733513 10.63071066 -3.3046875 10.27734375 C-5.4296875 8.33984375 -5.4296875 8.33984375 -7.3046875 6.27734375 C-11.24000018 5.36378902 -14.45619437 4.89188622 -18.3046875 6.27734375 C-18.63866537 9.151475 -18.63866537 9.151475 -18.3046875 12.27734375 C-15.26359466 15.25248518 -12.04414583 16.04709537 -7.9921875 17.08984375 C-2.44761586 18.74884944 2.37363345 20.29482518 5.6953125 25.27734375 C7.24077323 29.80798389 7.10118939 33.18147614 5.4453125 37.65234375 C2.95960952 41.38089822 0.90056917 43.63858028 -3.3046875 45.27734375 C-6.14357392 45.52197725 -8.84214506 45.64746825 -11.6796875 45.65234375 C-12.4221875 45.67683594 -13.1646875 45.70132813 -13.9296875 45.7265625 C-19.19608288 45.75447626 -22.09978012 44.69742016 -26.3046875 41.27734375 C-29.28977114 38.18932619 -29.82467059 35.50149256 -30.3046875 31.27734375 C-25.3546875 30.78234375 -25.3546875 30.78234375 -20.3046875 30.27734375 C-19.6446875 32.58734375 -18.9846875 34.89734375 -18.3046875 37.27734375 C-16.72173968 37.33171982 -15.13824494 37.37030646 -13.5546875 37.40234375 C-12.23210937 37.43714844 -12.23210937 37.43714844 -10.8828125 37.47265625 C-8.1911017 37.26873877 -6.60563776 36.64286096 -4.3046875 35.27734375 C-3.88722142 32.40369584 -3.88722142 32.40369584 -4.3046875 29.27734375 C-8.77348294 25.94020261 -13.84379148 24.86901078 -19.1484375 23.4375 C-23.11035483 21.98120118 -26.3712999 20.14411895 -28.3046875 16.27734375 C-28.79419405 11.29400659 -29.07210664 6.81218204 -26.8046875 2.27734375 C-19.05147807 -3.92522379 -8.69210574 -4.94429497 0 0 Z " fill="#F6F9FD" transform="translate(101.3046875,248.72265625)"/>
<path d="M0 0 C2.97 0 5.94 0 9 0 C9.01458252 0.97348389 9.02916504 1.94696777 9.04418945 2.94995117 C9.10233296 6.57515476 9.17956377 10.1997476 9.26245117 13.82446289 C9.29562532 15.39076801 9.32368058 16.95719051 9.34643555 18.52368164 C9.38012116 20.78061763 9.43244049 23.03648526 9.48828125 25.29296875 C9.49467117 25.98899704 9.5010611 26.68502533 9.50764465 27.40214539 C9.63766808 31.73955629 10.35102356 34.53988871 13 38 C16.57671447 39.78835724 20.54070464 39.43384457 24.3125 38.3125 C26.67767213 36.47292168 27.0890177 34.85642488 28 32 C28.22647164 29.51037265 28.35432084 27.01091156 28.4140625 24.51171875 C28.43342865 23.80852005 28.4527948 23.10532135 28.4727478 22.3808136 C28.53220183 20.14982981 28.57879049 17.91879346 28.625 15.6875 C28.66321137 14.16859814 28.70226492 12.64971722 28.7421875 11.13085938 C28.83787416 7.42076533 28.92203072 3.71051349 29 0 C31.97 0 34.94 0 38 0 C38.09954745 4.69557647 38.17178467 9.39052663 38.21972656 14.08691406 C38.23973053 15.68142408 38.26694301 17.27586178 38.30175781 18.87011719 C38.68834365 37.03965171 38.68834365 37.03965171 32.46826172 43.62060547 C28.37559544 47.46556131 24.01481185 47.36573915 18.625 47.375 C17.8825 47.39949219 17.14 47.42398438 16.375 47.44921875 C11.11098243 47.4771199 8.19793396 46.42714487 4 43 C-0.39705235 38.14808016 -0.14129228 33.25118754 -0.09765625 26.953125 C-0.0962413 26.18192322 -0.09482635 25.41072144 -0.09336853 24.6161499 C-0.08778534 22.16072662 -0.07523595 19.70539558 -0.0625 17.25 C-0.05748283 15.58203257 -0.0529203 13.91406371 -0.04882812 12.24609375 C-0.03782141 8.16402713 -0.02056836 4.08202919 0 0 Z " fill="#F9FBFD" transform="translate(257,247)"/>
<path d="M0 0 C3.32969465 2.05657611 5.38822951 4.83895902 7.125 8.3125 C7.209915 10.1988912 7.232193 12.08828515 7.22265625 13.9765625 C7.21943359 15.09804688 7.21621094 16.21953125 7.21289062 17.375 C7.20451172 18.550625 7.19613281 19.72625 7.1875 20.9375 C7.18298828 22.12085938 7.17847656 23.30421875 7.17382812 24.5234375 C7.16201467 27.45317507 7.14554258 30.38281272 7.125 33.3125 C4.155 33.3125 1.185 33.3125 -1.875 33.3125 C-2.205 32.3225 -2.535 31.3325 -2.875 30.3125 C-3.41125 30.79847656 -3.9475 31.28445313 -4.5 31.78515625 C-7.47113524 33.69586987 -9.36452661 33.74561191 -12.875 33.75 C-13.90625 33.76933594 -14.9375 33.78867187 -16 33.80859375 C-19.58194207 33.19051407 -20.71335606 32.19469192 -22.875 29.3125 C-23.625 27.12890625 -23.625 27.12890625 -23.875 24.875 C-23.978125 24.13378906 -24.08125 23.39257812 -24.1875 22.62890625 C-23.72335025 19.18839621 -22.34563618 17.70680758 -19.875 15.3125 C-16.81640625 14.16796875 -16.81640625 14.16796875 -13.4375 13.5 C-12.32503906 13.26667969 -11.21257812 13.03335937 -10.06640625 12.79296875 C-7.26643605 12.37143101 -4.69810228 12.21224029 -1.875 12.3125 C-2.535 10.6625 -3.195 9.0125 -3.875 7.3125 C-7.8850934 7.13385369 -7.8850934 7.13385369 -11.875 7.3125 C-12.535 7.9725 -13.195 8.6325 -13.875 9.3125 C-17.5 9.4375 -17.5 9.4375 -20.875 9.3125 C-21.205 7.9925 -21.535 6.6725 -21.875 5.3125 C-15.01147114 -0.63589168 -9.06529624 -2.16778823 0 0 Z " fill="#F5F8FD" transform="translate(209.875,260.6875)"/>
<path d="M0 0 C4.58183569 2.74910142 7.8511845 6.08872121 9.1875 11.3125 C9.1875 13.9525 9.1875 16.5925 9.1875 19.3125 C0.9375 19.3125 -7.3125 19.3125 -15.8125 19.3125 C-13.64583333 25.14583333 -13.64583333 25.14583333 -10.8125 26.3125 C-5.48282792 26.65342041 -5.48282792 26.65342041 -0.8125 24.3125 C1.66796875 24.1171875 1.66796875 24.1171875 4.375 24.1875 C5.27605469 24.20554687 6.17710937 24.22359375 7.10546875 24.2421875 C7.79253906 24.26539063 8.47960937 24.28859375 9.1875 24.3125 C6.6299542 28.57507633 4.70523767 31.18503351 0.1875 33.3125 C-3.37109375 33.74609375 -3.37109375 33.74609375 -7.25 33.75 C-8.52746094 33.76933594 -9.80492187 33.78867187 -11.12109375 33.80859375 C-16.37093893 33.103059 -19.35082524 31.12027956 -22.66015625 27.02734375 C-24.14898652 23.51976057 -24.24616893 20.67925371 -24.25 16.875 C-24.26933594 15.59753906 -24.28867188 14.32007813 -24.30859375 13.00390625 C-23.62919979 7.94857325 -21.54997537 4.8393723 -17.75 1.5 C-12.49334117 -1.72182315 -5.83944547 -1.42742 0 0 Z " fill="#F7FAFD" transform="translate(173.8125,260.6875)"/>
<path d="M0 0 C2.97 0 5.94 0 9 0 C9.33 7.92 9.66 15.84 10 24 C11.60875 22.185 13.2175 20.37 14.875 18.5 C17.63099488 15.57329083 19.94042593 13.26174419 23.95703125 12.26953125 C26.39406069 12.30788221 28.61932642 12.48874906 31 13 C29.46356148 16.68069887 27.21849055 18.98775204 24.375 21.75 C23.55773437 22.54921875 22.74046875 23.3484375 21.8984375 24.171875 C21.27195313 24.77515625 20.64546875 25.3784375 20 26 C21.61472935 30.78850772 24.2870199 34.624197 27.125 38.75 C32 45.88119835 32 45.88119835 32 47 C28.10690632 47.7728936 24.8610865 48.02220114 21 47 C17.55961666 43.43655474 13 38.19316304 13 33 C12.01 33.66 11.02 34.32 10 35 C9.41518879 37.88595946 9.41518879 37.88595946 9.3125 41.125 C9.24675781 42.22070312 9.18101562 43.31640625 9.11328125 44.4453125 C9.07589844 45.28835938 9.03851563 46.13140625 9 47 C6.03 47 3.06 47 0 47 C0 31.49 0 15.98 0 0 Z " fill="#F6F9FD" transform="translate(221,247)"/>
<path d="M0 0 C2.93022389 2.54802077 4.62688872 4.19428222 5.4140625 8.00390625 C5.600124 12.46092499 4.82325178 15.5717657 2 19 C-0.38219081 20.74693992 -1.54474533 21.02276273 -4.5 20.875 C-8.15728413 19.59495056 -10.27653416 17.44693168 -12 14 C-12.54724071 8.30869663 -11.59333707 5.43882815 -8 1 C-5.074084 -0.462958 -3.24382653 -0.44523109 0 0 Z " fill="#0E70DB" transform="translate(132,267)"/>
<path d="M0 0 C2.875 1.8125 2.875 1.8125 5 5 C5.83496337 9.90813249 6.03996389 14.32005833 3.375 18.625 C0.39830119 20.34835194 -1.54242332 21 -5 21 C-8.37545234 18.89971854 -9.73400961 17.79797116 -11 14 C-11.34578461 8.64033849 -11.45162946 5.38091432 -8 1 C-5.11138291 -0.44430855 -3.20352299 -0.37688506 0 0 Z " fill="#0D6FDB" transform="translate(319,267)"/>
<path d="M0 0 C0.33 1.32 0.66 2.64 1 4 C-4.05177142 6.62262176 -9.13613622 9.14536452 -14.375 11.375 C-15.16648438 11.71273437 -15.95796875 12.05046875 -16.7734375 12.3984375 C-19.26951669 13.07281679 -20.58958325 12.84749813 -23 12 C-23.015625 9.73828125 -23.015625 9.73828125 -22 7 C-19.43305507 5.28058677 -16.63330925 4.26695379 -13.75 3.1875 C-12.98558594 2.87619141 -12.22117188 2.56488281 -11.43359375 2.24414062 C-7.52170104 0.70708434 -4.27460721 -0.43600993 0 0 Z " fill="#1272DC" transform="translate(250,155)"/>
<path d="M0 0 C5.56777538 0.38616349 9.61775684 1.98687006 14.4375 4.5625 C15.07365234 4.89185547 15.70980469 5.22121094 16.36523438 5.56054688 C17.91494576 6.36453248 19.45818322 7.18097666 21 8 C21 9.65 21 11.3 21 13 C18.65868249 13.81580947 17.39244723 14.12746026 15.0012207 13.35083008 C12.76348715 12.18497642 10.5300219 11.01650897 8.3125 9.8125 C7.52810547 9.41224609 6.74371094 9.01199219 5.93554688 8.59960938 C5.18982422 8.20193359 4.44410156 7.80425781 3.67578125 7.39453125 C2.99427002 7.03206299 2.31275879 6.66959473 1.6105957 6.29614258 C-0.40986853 4.67015431 -0.7236079 3.54469103 -1 1 C-0.67 0.67 -0.34 0.34 0 0 Z " fill="#1775DC" transform="translate(227,180)"/>
<path d="M0 0 C0.77279297 0.00410889 1.54558594 0.00821777 2.34179688 0.01245117 C3.60443359 0.01535156 3.60443359 0.01535156 4.89257812 0.01831055 C5.77300781 0.03055664 6.6534375 0.04280273 7.56054688 0.05541992 C8.88119141 0.05638672 8.88119141 0.05638672 10.22851562 0.05737305 C16.77974573 0.10251935 16.77974573 0.10251935 19.06054688 1.24291992 C19.06054688 2.89291992 19.06054688 4.54291992 19.06054688 6.24291992 C12.13054687 6.24291992 5.20054687 6.24291992 -1.93945312 6.24291992 C-2.59945312 4.92291992 -3.25945312 3.60291992 -3.93945312 2.24291992 C-1.93945312 0.24291992 -1.93945312 0.24291992 0 0 Z " fill="#1071DB" transform="translate(230.939453125,170.757080078125)"/>
<path d="M0 0 C2.875 2.3125 2.875 2.3125 5 5 C5 5.99 5 6.98 5 8 C-0.28 8 -5.56 8 -11 8 C-8.46254443 1.65636109 -7.22620772 -1.15619324 0 0 Z " fill="#1675DC" transform="translate(169,266)"/>
<path d="M0 0 C1.21236328 0.02707031 1.21236328 0.02707031 2.44921875 0.0546875 C3.37154297 0.08949219 3.37154297 0.08949219 4.3125 0.125 C3.83030822 5.54965753 3.83030822 5.54965753 1.625 8 C-1.34198426 9.44339775 -3.42704567 9.47939721 -6.6875 9.125 C-7.3475 8.465 -8.0075 7.805 -8.6875 7.125 C-8.5 4.625 -8.5 4.625 -7.6875 2.125 C-4.48369983 -0.01086678 -3.66810033 -0.10632175 0 0 Z " fill="#0D6EDB" transform="translate(203.6875,278.875)"/>
</svg>
